<svg id="Capa_1" enable-background="new 0 0 512 512" height="512" viewBox="0 0 512 512" width="512" xmlns="http://www.w3.org/2000/svg"><g><path d="m256 91h-226v330h226 226v-330z" fill="#d5e8fe"/><path d="m256 91h226v330h-226z" fill="#b5dbff"/><path d="m256 91h-196v330h196 196v-330z" fill="#edf5ff"/><path d="m256 91h196v330h-196z" fill="#d5e8fe"/><g><path d="m211 301c-18.007 0-33.995 8.134-45 20.729-11.005-12.595-26.993-20.729-45-20.729h-30v30c0 33.091 26.909 60 60 60l15 15 15-15c33.091 0 60-26.909 60-60v-30z" fill="#8cd96b"/><path d="m241 331v-30h-30c-18.007 0-33.995 8.134-45 20.729v84.271l15-15c33.091 0 60-26.909 60-60z" fill="#5ab267"/></g><g><path d="m391 301c-18.007 0-33.995 8.134-45 20.729-11.005-12.595-26.993-20.729-45-20.729h-30v30c0 33.091 26.909 60 60 60l15 15 15-15c33.091 0 60-26.909 60-60v-30z" fill="#8cd96b"/><path d="m421 331v-30h-30c-18.007 0-33.995 8.134-45 20.729v84.271l15-15c33.091 0 60-26.909 60-60z" fill="#5ab267"/></g><g><path d="m211 151c-18.007 0-33.995 8.134-45 20.729-11.005-12.595-26.993-20.729-45-20.729h-30v30c0 33.091 26.909 60 60 60l15 15 15-15c33.091 0 60-26.909 60-60v-30z" fill="#8cd96b"/><path d="m241 181v-30h-30c-18.007 0-33.995 8.134-45 20.729v84.271l15-15c33.091 0 60-26.909 60-60z" fill="#5ab267"/></g><g><path d="m391 151c-18.007 0-33.995 8.134-45 20.729-11.005-12.595-26.993-20.729-45-20.729h-30v30c0 33.091 26.909 60 60 60l15 15 15-15c33.091 0 60-26.909 60-60v-30z" fill="#8cd96b"/><path d="m421 181v-30h-30c-18.007 0-33.995 8.134-45 20.729v84.271l15-15c33.091 0 60-26.909 60-60z" fill="#5ab267"/></g><path d="m482 0h-226-226l-30 121h256 256z" fill="#7ed8f6"/><path d="m482 0h-226v121h256z" fill="#6aa9ff"/><path d="m256 241h-256v30h256 256v-30z" fill="#9b786f"/><path d="m256 241h256v30h-256z" fill="#704c55"/><path d="m256 391h-256v121h54.272l31-61h170.728 170.728l31 61h54.272v-121z" fill="#9b786f"/><path d="m457.728 512h54.272v-121h-256v60h170.728z" fill="#704c55"/></g></svg>