<svg height="464pt" viewBox="-59 0 464 464.06293" width="464pt" xmlns="http://www.w3.org/2000/svg"><path d="m256.03125 464.0625h-144l32-160h80zm0 0" fill="#f8b14e"/><path d="m194.589844 448.0625c-14.378906-.007812-28-6.460938-37.113282-17.585938-9.109374-11.128906-12.753906-25.753906-9.925781-39.855468l17.28125-86.558594h-20.800781l-32 160h144l-3.199219-16zm0 0" fill="#db9540"/><path d="m232.03125 343.023438-48 17.039062v-8c0-8.835938-7.164062-16-16-16s-16 7.164062-16 16v8l-17.917969-6.398438-9.683593 48 27.601562-9.601562v8c0 8.835938 7.164062 16 16 16s16-7.164062 16-16v-8l62 22.160156zm0 0" fill="#db9540"/><path d="m64.03125 136.0625h240v96c0 66.273438-53.726562 120-120 120s-120-53.726562-120-120zm0 0" fill="#f8b14e"/><path d="m232.03125 336.0625c-66.273438 0-120-53.726562-120-120v-80h-48v96c.046875 43.03125 23.128906 82.742188 60.5 104.078125 37.367188 21.339844 83.296875 21.035156 120.378906-.796875-4.273437.480469-8.574218.722656-12.878906.71875zm0 0" fill="#db9540"/><path d="m248.03125 276.0625c-.027344 16.269531 6.589844 31.84375 18.320312 43.121094 24.070313-22.578125 37.710938-54.117188 37.679688-87.121094v-16c-31.601562 2.03125-56.148438 28.332031-56 60zm0 0" fill="#f8cb8d"/><path d="m64.03125 214.304688c7.964844 3.707031 17.433594 1.453124 22.878906-5.441407l10.320313-13.121093 16.5625-2.398438c6.835937-1.011719 12.574219-5.675781 14.957031-12.160156.480469-1.289063.800781-2.632813.960938-4 .039062-.160156.039062-.324219 0-.480469.121093-1.25.121093-2.511719 0-3.761719 0 0 0-.558594 0-.796875-.183594-1.5625-.558594-3.09375-1.121094-4.5625l-3.359375-8.398437 10.722656 1.519531 13.117187 16.71875.800782.722656-16 16-9.601563 9.597657c-7.519531 7.503906-11.75 17.695312-11.75 28.320312s4.230469 20.816406 11.75 28.320312l33.921875-34c9.953125-10.0625 13.847656-24.632812 10.238282-38.320312.035156-.15625.035156-.320312 0-.480469v-1.039062c5.902343.007812 11.597656-2.15625 16-6.078125 1.292968 8.28125 5.15625 15.949218 11.042968 21.917968l34 34c10.9375-11.007812 14.523438-27.34375 9.199219-41.917968l8.71875 1.277344 10.320313 13.121093c3.597656 4.554688 9.078124 7.210938 14.878906 7.210938 5.804687 0 11.285156-2.65625 14.882812-7.210938l10.320313-13.121093 6.796875-1.039063v-58.640625h-240.558594zm0 0" fill="#db9540"/><g fill="#e76b93"><path d="m184.03125 312.0625c8.835938 0 16 7.164062 16 16v48c0 8.835938-7.164062 16-16 16s-16-7.164062-16-16v-48c0-8.835938 7.164062-16 16-16zm0 0"/><path d="m277.472656 395.742188-77.441406-27.679688v-32l77.441406-27.679688c5.988282-2.132812 12.667969-.515624 17.023438 4.113282 4.355468 4.632812 5.554687 11.402344 3.054687 17.246094l-6.800781 16c-1.734375 4.035156-1.734375 8.605468 0 12.640624l6.800781 16c2.5 5.84375 1.300781 12.613282-3.054687 17.246094-4.355469 4.632813-11.035156 6.246094-17.023438 4.113282zm0 0"/><path d="m90.589844 395.742188 77.441406-27.679688v-32l-77.441406-27.679688c-5.988282-2.132812-12.667969-.515624-17.023438 4.113282-4.351562 4.632812-5.550781 11.402344-3.054687 17.246094l6.800781 16c1.734375 4.035156 1.734375 8.605468 0 12.640624l-6.800781 16c-2.496094 5.84375-1.296875 12.613282 3.054687 17.246094 4.355469 4.632813 11.035156 6.246094 17.023438 4.113282zm0 0"/></g><path d="m290.75 358.382812c-1.734375-4.035156-1.734375-8.605468 0-12.640624l6.800781-16c2.5-5.84375 1.300781-12.613282-3.054687-17.246094-4.355469-4.628906-11.035156-6.246094-17.023438-4.113282l-53.441406 19.121094c4.6875 6.023438 12.894531 8.042969 19.839844 4.878906l17.601562-8c5.988282-2.132812 12.667969-.515624 17.023438 4.113282 4.355468 4.632812 5.554687 11.402344 3.054687 17.246094l-6.800781 16c-1.734375 4.035156-1.734375 8.605468 0 12.640624l6.800781 16c.859375 1.964844 1.269531 4.097657 1.199219 6.238282 5.378906.023437 10.410156-2.65625 13.386719-7.132813 2.980469-4.476562 3.511719-10.152343 1.414062-15.105469zm0 0" fill="#f1a6be"/><path d="m184.03125 312.0625c-2.816406.03125-5.578125.800781-8 2.242188 4.921875 2.839843 7.964844 8.078124 8 13.757812v48c-.035156 5.683594-3.078125 10.917969-8 13.761719 4.9375 2.847656 11.015625 2.859375 15.957031.023437 4.945313-2.835937 8.007813-8.085937 8.042969-13.785156v-48c0-8.835938-7.164062-16-16-16zm0 0" fill="#f1a6be"/><path d="m150.910156 329.902344c-4.109375 22.453125-19.871094 41.019531-41.359375 48.71875l-2.960937 1.121094c-5.988282 2.132812-12.667969.519531-17.023438-4.113282-4.351562-4.632812-5.550781-11.402344-3.054687-17.246094l6.800781-16c1.734375-4.035156 1.734375-8.605468 0-12.640624l-6.800781-16c-.851563-1.964844-1.261719-4.097657-1.199219-6.238282-5.378906-.023437-10.410156 2.65625-13.386719 7.132813-2.980469 4.480469-3.511719 10.152343-1.414062 15.105469l6.800781 16c1.734375 4.035156 1.734375 8.605468 0 12.640624l-6.800781 16c-2.496094 5.84375-1.296875 12.613282 3.054687 17.246094 4.355469 4.632813 11.035156 6.246094 17.023438 4.113282l77.441406-27.679688v-32zm0 0" fill="#ce5983"/><path d="m140.363281 179.800781 33.941407-33.941406c15.621093 15.621094 15.621093 40.945313 0 56.566406l-33.941407 33.941407c-15.621093-15.621094-15.621093-40.945313 0-56.566407zm0 0" fill="#b8c9e3"/><path d="m149.953125 170.144531c4.480469 5.117188 10.925781 8.09375 17.730469 8.183594 6.804687.09375 13.328125-2.707031 17.949218-7.707031-.765624-9.339844-4.785156-18.117188-11.363281-24.796875zm0 0" fill="#95b2db"/><path d="m244.835938 212.261719-33.941407-33.941407c-15.621093-15.621093-15.621093-40.949218 0-56.570312l33.941407 33.941406c15.621093 15.621094 15.621093 40.949219 0 56.570313zm0 0" fill="#7798bf"/><path d="m296.03125 40.0625h48c0 22.09375-17.910156 40-40 40h-48c0-22.089844 17.910156-40 40-40zm0 0" fill="#b8c9e3"/><path d="m88.03125 96.0625h-48c-22.089844 0-40-17.90625-40-40h48c22.089844 0 40 17.910156 40 40zm0 0" fill="#b8c9e3"/><path d="m88.03125 96.0625c.082031-20.785156-15.773438-38.171875-36.480469-40l-4.480469 11.359375c-1.867187 4.238281-1.507812 9.125.960938 13.042969l-9.441406 11.917968-10.957032 1.601563c4 1.328125 8.183594 2.03125 12.398438 2.078125zm0 0" fill="#95b2db"/><path d="m124.671875 5.421875 8 9.921875 12.398437 1.757812c4.296876.628907 8.074219 3.183594 10.253907 6.9375 2.179687 3.753907 2.53125 8.300782.945312 12.34375l-4.957031 11.679688 4.71875 11.679688c1.582031 4.042968 1.234375 8.589843-.945312 12.34375-2.183594 3.753906-5.957032 6.308593-10.253907 6.9375l-12.402343 1.757812-8 9.839844c-2.683594 3.40625-6.78125 5.394531-11.117188 5.394531-4.339844 0-8.4375-1.988281-11.121094-5.394531l-8-9.839844-12.480468-1.757812c-4.28125-.648438-8.035157-3.214844-10.199219-6.964844-2.164063-3.75-2.503907-8.285156-.921875-12.316406l5.121094-11.679688-4.640626-11.679688c-1.582031-4.03125-1.242187-8.5625.921876-12.316406 2.164062-3.75 5.917968-6.3125 10.199218-6.964844l12.480469-1.757812 8-9.921875c2.6875-3.316406 6.730469-5.242187 11-5.242187s8.3125 1.925781 11 5.242187zm0 0" fill="#ce5983"/><path d="m302.910156 71.261719 10.320313 13.121093 16.5625 2.398438c5.722656.867188 10.738281 4.292969 13.632812 9.304688 2.894531 5.011718 3.355469 11.066406 1.246094 16.457031l-6.242187 15.519531 6.242187 15.519531c2.109375 5.390625 1.648437 11.449219-1.246094 16.460938s-7.910156 8.433593-13.632812 9.300781l-16.5625 2.398438-10.320313 13.121093c-3.59375 4.554688-9.078125 7.210938-14.878906 7.210938s-11.285156-2.65625-14.878906-7.210938l-10.320313-13.121093-16.5625-2.398438c-5.71875-.867188-10.738281-4.289062-13.632812-9.300781s-3.351563-11.070313-1.246094-16.460938l6.242187-15.519531-6.242187-15.519531c-2.105469-5.390625-1.648437-11.445313 1.246094-16.457031 2.894531-5.011719 7.914062-8.4375 13.632812-9.304688l16.5625-2.398438 10.320313-13.121093c3.59375-4.550781 9.078125-7.207031 14.878906-7.207031s11.285156 2.65625 14.878906 7.207031zm0 0" fill="#e76b93"/><path d="m264.910156 81.742188-2.078125 2.640624-16.5625 2.398438c-5.71875.867188-10.738281 4.292969-13.632812 9.304688-2.894531 5.011718-3.351563 11.066406-1.246094 16.457031l6.242187 15.519531-6.242187 15.519531c-2.058594 5.214844-1.707031 11.070313.960937 16l12.71875-1.839843c7.316407-1.015626 13.753907-5.347657 17.457032-11.738282s4.257812-14.128906 1.503906-20.980468l-8-19.679688 8-19.761719c.441406-1.242187.734375-2.53125.878906-3.839843zm0 0" fill="#ce5983"/><path d="m304.03125 128.0625c0 8.835938-7.164062 16-16 16s-16-7.164062-16-16 7.164062-16 16-16 16 7.164062 16 16zm0 0" fill="#f8b14e"/><path d="m329.792969 86.78125-16.5625-2.398438-10.320313-13.121093c-5.074218-6.40625-13.707031-8.800781-21.359375-5.917969-.996093 4.84375-1.503906 9.773438-1.519531 14.71875-.132812 37.507812 28.546875 68.832031 65.921875 72 .132813-2.726562-.300781-5.449219-1.28125-8l-6.242187-16 6.242187-15.519531c2.109375-5.390625 1.648437-11.445313-1.246094-16.457031-2.894531-5.011719-7.910156-8.4375-13.632812-9.304688zm0 0" fill="#f1a6be"/><path d="m303.230469 132.863281c.511719-1.550781.78125-3.167969.800781-4.800781 0-8.835938-7.164062-16-16-16h-.480469c3.90625 7.839844 9.222657 14.890625 15.679688 20.800781zm0 0" fill="#f8cb8d"/><path d="m102.910156 71.261719 10.320313 13.121093 16.5625 2.398438c5.722656.867188 10.738281 4.292969 13.632812 9.304688 2.894531 5.011718 3.355469 11.066406 1.246094 16.457031l-6.242187 15.519531 6.242187 15.519531c2.109375 5.390625 1.648437 11.449219-1.246094 16.460938s-7.910156 8.433593-13.632812 9.300781l-16.5625 2.398438-10.320313 13.121093c-3.59375 4.554688-9.078125 7.210938-14.878906 7.210938s-11.285156-2.65625-14.878906-7.210938l-10.320313-13.121093-16.5625-2.398438c-5.71875-.867188-10.738281-4.289062-13.632812-9.300781s-3.351563-11.070313-1.246094-16.460938l6.242187-15.519531-6.242187-15.519531c-2.105469-5.390625-1.648437-11.445313 1.246094-16.457031 2.894531-5.011719 7.914062-8.4375 13.632812-9.304688l16.5625-2.398438 10.320313-13.121093c3.59375-4.550781 9.078125-7.207031 14.878906-7.207031s11.285156 2.65625 14.878906 7.207031zm0 0" fill="#e76b93"/><path d="m144.671875 143.582031-6.242187-15.519531 6.242187-15.519531c2.109375-5.390625 1.648437-11.445313-1.246094-16.457031-2.894531-5.011719-7.910156-8.4375-13.632812-9.304688l-16.5625-2.398438-10.320313-13.121093c-2.074218-2.644531-4.84375-4.667969-8-5.839844-.726562 4.082031-.339844 8.28125 1.121094 12.160156l8 19.761719-8 19.679688c-2.722656 6.820312-2.171875 14.511718 1.492188 20.875 3.667968 6.363281 10.042968 10.695312 17.308593 11.765624l21.039063 3.039063 6.640625 8.480469c3.585937-5.148438 4.394531-11.738282 2.160156-17.601563zm0 0" fill="#ce5983"/><path d="m104.03125 128.0625c0 8.835938-7.164062 16-16 16s-16-7.164062-16-16 7.164062-16 16-16 16 7.164062 16 16zm0 0" fill="#f8b14e"/><path d="m202.910156 9.183594 13.121094 16.71875 21.039062 3.039062c7.296876 1.027344 13.714844 5.34375 17.414063 11.714844 3.699219 6.367188 4.269531 14.082031 1.546875 20.925781l-8 19.761719 8 19.679688c2.722656 6.820312 2.171875 14.511718-1.492188 20.875-3.667968 6.363281-10.042968 10.695312-17.308593 11.765624l-21.199219 3.039063-13.121094 16.71875c-4.546875 5.796875-11.507812 9.183594-18.878906 9.183594s-14.328125-3.386719-18.878906-9.183594l-13.121094-16.71875-21.039062-3.039063c-7.292969-1.027343-13.714844-5.34375-17.414063-11.710937-3.699219-6.371094-4.269531-14.085937-1.546875-20.929687l8-19.679688-8-19.761719c-2.722656-6.820312-2.171875-14.511719 1.492188-20.871093 3.667968-6.363282 10.042968-10.699219 17.308593-11.769532l21.199219-3.039062 13.121094-16.71875c4.550781-5.796875 11.507812-9.183594 18.878906-9.183594s14.332031 3.386719 18.878906 9.183594zm0 0" fill="#e76b93"/><path d="m237.070312 28.941406-21.039062-3.039062-13.121094-16.71875c-4.546875-5.796875-11.507812-9.183594-18.878906-9.183594s-14.328125 3.386719-18.878906 9.183594l-13.121094 16.71875-16 2.242187c2.175781 42.582031 37.363281 75.972657 80 75.917969 13.027344.023438 25.859375-3.164062 37.359375-9.28125l-5.359375-13.4375 8-19.761719c2.722656-6.84375 2.152344-14.558593-1.546875-20.925781-3.699219-6.371094-10.117187-10.6875-17.414063-11.714844zm0 0" fill="#f1a6be"/><path d="m208.03125 81.34375c0 13.253906-10.746094 24-24 24s-24-10.746094-24-24 10.746094-24 24-24 24 10.746094 24 24zm0 0" fill="#f8cb8d"/><path d="m192.03125 89.34375c-13.253906 0-24-10.746094-24-24 0-.722656 0-1.359375 0-2-7.976562 7.207031-10.183594 18.839844-5.40625 28.46875 4.777344 9.632812 15.378906 14.910156 25.941406 12.921875 10.566406-1.992187 18.515625-10.761719 19.464844-21.472656-4.40625 3.925781-10.101562 6.089843-16 6.082031zm0 0" fill="#f8b14e"/></svg>